<svg width="70" height="70" viewBox="0 0 70 70" fill="none" xmlns="http://www.w3.org/2000/svg">
<path fill-rule="evenodd" clip-rule="evenodd" d="M45 0H25V5L17 5V9H13V13H9V17H5V25L0 25V33L70 33V25H65V17H61V13H57V9H53V5L45 5V0ZM25 70H45V65H53V61H57V57H61V53H65V45L70 45V37L0 37V45H5L5 53H9L9 57H13V61H17V65H25V70Z" fill="#FF0099"/>
<path fill-rule="evenodd" clip-rule="evenodd" d="M33 0H37V33H45V21H49V33H70V37H49V49H45V37H37L37 70H33L33 37H25L25 49H21L21 37L0 37V33L21 33V21H25V33H33V0ZM17 17H21V21H17V17ZM17 17H13V13H17V17ZM17 53V49H21V53H17ZM17 53V57H13V53H17ZM53 53H49V49H53V53ZM53 53H57V57H53V53ZM53 17V21H49V17H53ZM53 17V13H57V17H53Z" fill="#191516"/>
</svg>
