<svg width="68" height="65" viewBox="0 0 68 65" fill="none" xmlns="http://www.w3.org/2000/svg">
<rect x="4" y="4" width="60" height="42" fill="white"/>
<path fill-rule="evenodd" clip-rule="evenodd" d="M64 0H4H0V4V46V50H4H64H68V46V4V0H64ZM4 46H64V4H4V46Z" fill="#141414"/>
<path fill-rule="evenodd" clip-rule="evenodd" d="M16 18H52H56V22V30H52V22H16V30H12V22V18H16Z" fill="#141414"/>
<rect x="12" y="30" width="44" height="4" fill="#ED00C7"/>
<path fill-rule="evenodd" clip-rule="evenodd" d="M12 65V34H16V38H20V34H24V38H28V34H32V38H36V34H40V38H44V34H48V38H52V34H56V65H52V58H48V65H44V58H40V65H36V58H32V65H28V58H24V65H20V58H16V65H12ZM16 54H20V50H16V54ZM24 54H28V50H24V54ZM32 54H36V50H32V54ZM40 54H44V50H40V54ZM48 54H52V50H48V54ZM52 42V46H48V42H52ZM44 42V46H40V42H44ZM36 42V46H32V42H36ZM28 42V46H24V42H28ZM20 42V46H16V42H20Z" fill="#B0B0B0"/>
</svg>
